<?xml version="1.0" standalone="no"?>
<!DOCTYPE svg PUBLIC "-//W3C//DTD SVG 1.0//EN" "http://www.w3.org/TR/2001/REC-SVG-20010904/DTD/svg10.dtd">
<svg xmlns="http://www.w3.org/2000/svg" xmlns:xlink="http://www.w3.org/1999/xlink" id="body_1" width="30" height="30">

<g transform="matrix(0.33333334 0 0 0.33333334 0 0)">
	<g transform="matrix(0.1 0 -0 -0.1 0 90)">
        <path d="M473 768C 399 732 407 574 487 488C 516 458 514 426 483 422C 459 418 411 476 384 540C 363 588 355 682 368 719L368 719L379 750L309 750C 227 750 174 728 137 678C 80 600 77 533 126 407C 149 348 166 281 174 220L174 220L186 125L255 125L325 125L328 200C 331 281 340 300 375 300C 410 300 419 281 422 200L422 200L425 125L478 122C 508 120 537 124 544 129C 551 135 560 173 563 213C 571 304 603 411 630 435C 670 471 734 423 746 348C 757 286 743 243 698 201C 640 145 659 108 728 144C 768 165 796 199 824 260C 885 394 884 613 821 687C 773 744 701 763 630 738C 604 729 595 729 592 739C 587 754 536 780 513 779C 503 779 485 774 473 768zM805 540C 805 522 799 514 782 512C 769 510 757 515 754 524C 744 550 758 572 782 568C 799 566 805 558 805 540z" stroke="none" fill="#000000" fill-rule="nonzero" />
	</g>
</g>
</svg>