<?xml version="1.0" standalone="no"?>
<!DOCTYPE svg PUBLIC "-//W3C//DTD SVG 20010904//EN"
 "http://www.w3.org/TR/2001/REC-SVG-20010904/DTD/svg10.dtd">
<svg version="1.0" xmlns="http://www.w3.org/2000/svg"
 width="90.000000pt" height="90.000000pt" viewBox="0 0 90.000000 90.000000"
 preserveAspectRatio="xMidYMid meet">

<g transform="translate(0.000000,90.000000) scale(0.100000,-0.100000)"
fill="#000000" stroke="none">
<path d="M473 768 c-74 -36 -66 -194 14 -280 29 -30 27 -62 -4 -66 -24 -4 -72
54 -99 118 -21 48 -29 142 -16 179 l11 31 -70 0 c-82 0 -135 -22 -172 -72 -57
-78 -60 -145 -11 -271 23 -59 40 -126 48 -187 l12 -95 69 0 70 0 3 75 c3 81
12 100 47 100 35 0 44 -19 47 -100 l3 -75 53 -3 c30 -2 59 2 66 7 7 6 16 44
19 84 8 91 40 198 67 222 40 36 104 -12 116 -87 11 -62 -3 -105 -48 -147 -58
-56 -39 -93 30 -57 40 21 68 55 96 116 61 134 60 353 -3 427 -48 57 -120 76
-191 51 -26 -9 -35 -9 -38 1 -5 15 -56 41 -79 40 -10 0 -28 -5 -40 -11z m332
-228 c0 -18 -6 -26 -23 -28 -13 -2 -25 3 -28 12 -10 26 4 48 28 44 17 -2 23
-10 23 -28z"/>
</g>
</svg>
