<?xml version="1.0" standalone="no"?>
<!DOCTYPE svg PUBLIC "-//W3C//DTD SVG 20010904//EN"
 "http://www.w3.org/TR/2001/REC-SVG-20010904/DTD/svg10.dtd">
<svg version="1.0" xmlns="http://www.w3.org/2000/svg"
 width="144.000000pt" height="144.000000pt" viewBox="0 0 144.000000 144.000000"
 preserveAspectRatio="xMidYMid meet">

<g transform="translate(0.000000,144.000000) scale(0.100000,-0.100000)"
fill="#000000" stroke="none">
<path d="M497 1290 c-143 -24 -230 -81 -279 -182 -35 -72 -48 -149 -48 -289 0
-108 2 -119 21 -132 26 -19 58 -11 64 17 2 11 6 82 8 156 4 155 21 211 85 273
63 61 122 72 372 72 267 0 317 -11 383 -85 72 -79 87 -170 68 -389 -13 -144
-9 -161 35 -161 35 0 44 27 56 181 19 237 -13 363 -115 455 -51 46 -102 66
-213 84 -70 12 -368 11 -437 0z"/>
<path d="M507 1066 c-50 -19 -67 -34 -88 -81 -16 -34 -19 -67 -19 -212 l0
-173 55 0 55 0 0 159 c0 140 2 161 19 182 13 16 29 23 55 23 60 0 70 -19 76
-142 l5 -107 55 0 55 0 5 107 c6 123 16 142 76 142 26 0 42 -7 55 -23 17 -21
19 -42 19 -182 l0 -159 55 0 55 0 0 173 c0 159 -2 176 -22 217 -30 58 -75 84
-145 84 -59 0 -95 -20 -128 -72 -11 -17 -22 -31 -25 -31 -3 0 -14 14 -25 31
-42 65 -116 91 -188 64z"/>
<path d="M190 600 c-8 -16 -7 -42 4 -103 33 -172 123 -287 259 -329 61 -20 94
-23 222 -23 182 0 249 17 270 69 17 41 8 89 -21 117 -23 21 -27 22 -106 11
-88 -12 -187 -5 -225 16 -45 25 -22 31 100 25 223 -10 402 28 402 86 0 41 -25
47 -107 26 -87 -24 -348 -28 -436 -7 -72 16 -92 5 -92 -50 0 -23 9 -61 21 -85
38 -78 101 -105 253 -106 82 0 94 -2 66 -10 -54 -14 -266 -2 -330 19 -103 35
-161 118 -191 274 -6 36 -16 71 -22 78 -15 19 -55 14 -67 -8z"/>
</g>
</svg>
